<?xml version="1.0" encoding="UTF-8"?>
<svg width="175px" height="64px" viewBox="0 0 175 64" version="1.1" xmlns="http://www.w3.org/2000/svg" xmlns:xlink="http://www.w3.org/1999/xlink">
    <title>Tiffany Lea / Main / Darksvg</title>
    <g id="Tiffany-Lea-/-Main-/-Dark" stroke="none" stroke-width="1" fill="none" fill-rule="evenodd">
        <path d="M6.20352008,51.312205 C9.38481243,51.312205 12.6962486,49.7010564 16.1378285,46.4787593 C19.9553793,42.8824455 23.151132,37.9195325 25.7250868,31.5900202 C28.7039332,24.2535401 30.5114857,15.7662396 31.1477442,6.12811868 C32.8251529,5.98426613 34.4302595,5.91233985 35.963064,5.91233985 C43.0486696,5.91233985 47.3434143,7.20701281 48.847298,9.79635873 C49.0497438,10.1703754 49.2811106,10.3573837 49.5413981,10.3573837 C49.8016857,10.3573837 49.9318294,10.1991459 49.9318294,9.88267026 C49.9318294,9.7100472 49.8739878,9.52303889 49.7583044,9.32164531 C47.7627665,5.86918409 42.71608,4.14295347 34.6182449,4.14295347 C33.519253,4.14295347 32.3913403,4.18610924 31.2345067,4.27242077 C31.2923484,3.32299393 31.3212692,2.37356709 31.3212692,1.42414026 C31.3501901,0.474713419 30.9163775,0 30.0198314,0 C29.2100479,0 28.7762353,0.445942909 28.7183937,1.33782873 C28.660552,2.4023376 28.5882499,3.45246123 28.5014874,4.4881996 C26.3902661,4.68959317 24.3802677,4.97729827 22.4714923,5.3513149 C17.3235829,6.32951225 12.5805652,8.09889863 8.24243927,10.659474 C2.74747976,13.8817712 0,17.3917734 0,21.1894808 C0,24.1240728 0.997768964,26.1955496 2.99330689,27.403911 C3.25359445,27.5765341 3.49942158,27.6628456 3.7307883,27.6628456 C4.04891753,27.6628456 4.20798215,27.5477635 4.20798215,27.3175995 C4.20798215,27.1162059 4.03445711,26.9004271 3.68740704,26.670263 C2.18352338,25.7783772 1.43158156,24.1096876 1.43158156,21.6641942 C1.43158156,17.9527984 4.30920509,14.6298045 10.0644522,11.6952124 C15.1545199,9.10586649 21.2423566,7.35086536 28.3279623,6.43020904 C26.9108412,22.7143178 23.7295488,34.567768 18.7840853,41.9905597 C15.2846637,47.2843336 11.3225087,49.9312205 6.89762023,49.9312205 C5.79862833,49.9312205 4.85870104,49.7657901 4.07783837,49.4349292 C3.29697571,49.1040683 2.87039332,48.7300517 2.79809122,48.3128793 C2.72578913,47.8957069 2.40042968,47.6871207 1.82201289,47.6871207 C1.41712114,47.6871207 1.10622211,47.7950101 0.889315816,48.0107889 C0.672409519,48.2265678 0.665179309,48.4783097 0.867625186,48.7660148 C2.16906296,50.4634749 3.9476946,51.312205 6.20352008,51.312205 Z M38.1755082,23.174646 C38.6382416,23.3184985 39.1660469,23.0523713 39.7589241,22.3762643 C40.3518014,21.7001573 40.64824,21.0456282 40.64824,20.412677 C40.64824,19.6646437 40.1855065,19.3050124 39.2600397,19.3337829 C38.7973062,19.3625534 38.3851843,19.6502585 38.0236738,20.1968982 C37.6621633,20.7435379 37.481408,21.3045628 37.481408,21.879973 C37.481408,22.1964486 37.5392497,22.4553832 37.6549331,22.6567768 C37.8284581,22.9444819 38.0019831,23.117105 38.1755082,23.174646 Z M35.5726326,43.2852326 C36.4402578,43.2852326 37.307883,42.968757 38.1755082,42.3358058 C40.2867295,40.6958867 41.9207569,38.2360081 43.0775905,34.9561699 C43.1932738,34.6972353 43.2511155,34.452686 43.2511155,34.2225219 C43.2511155,33.9348168 43.164353,33.7909643 42.990828,33.7909643 C42.7594612,33.7909643 42.441332,34.2081367 42.0364403,35.0424815 C41.0242109,37.1139582 39.8673773,38.8977298 38.5659395,40.3937964 C37.2645017,41.8898629 36.1944307,42.6378962 35.3557263,42.6378962 C34.4302595,42.6378962 33.9530656,41.7460103 33.9241448,39.9622387 C33.8663031,38.1209261 34.0398281,36.481007 34.4447199,35.0424815 C34.7339283,34.0930546 35.3557263,32.6689144 36.310114,30.7700607 C37.3512643,28.7273545 37.9152206,27.4470668 38.0019831,26.9291976 C38.1755082,26.0660823 38.0453644,25.4906721 37.6115518,25.202967 C36.9752933,24.7714093 36.3968765,24.9296471 35.8763014,25.6776804 C35.2689638,26.5120252 34.8062304,27.3319847 34.4881011,28.137559 C33.0131383,31.6187907 32.2756569,35.071252 32.2756569,38.4949427 C32.2756569,40.6815015 32.7673112,42.1056417 33.7506197,42.7673635 C34.3001157,43.1126096 34.9074533,43.2852326 35.5726326,43.2852326 Z M48.9774417,59.4686446 C49.4112543,59.4974151 49.8016857,59.3175995 50.1487357,58.9291976 C50.4957858,58.5407957 50.6693109,58.1739717 50.6693109,57.8287256 C50.6693109,57.4834794 50.4957858,57.3683974 50.1487357,57.4834794 C47.7483061,57.9725781 45.9985953,55.4983142 44.8996034,50.0606878 C44.1187407,46.1766689 43.7283094,41.3000674 43.7283094,35.4308833 C43.7283094,33.3018656 43.7716906,31.6187907 43.8584531,30.3816588 C44.5236325,29.9213306 45.1598909,29.5329287 45.7672286,29.2164531 C48.3701041,27.8642392 50.2354983,26.9004271 51.363411,26.3250169 C52.0285903,25.9797707 52.36118,25.6489099 52.36118,25.3324343 C52.36118,25.2461227 52.2744175,25.202967 52.1008924,25.202967 C51.7249215,25.202967 50.7126921,25.5050573 49.0642043,26.109238 C47.9941332,26.5120252 46.9096017,26.9148123 45.8106098,27.3175995 C45.0875888,27.4902225 44.509172,27.6053046 44.0753594,27.6628456 C44.9140638,22.3115307 46.2588828,18.1254214 48.1098166,15.1045179 C49.5847794,12.7165655 50.9729797,11.5225893 52.2744175,11.5225893 C52.9685176,11.5225893 53.3155677,11.9109912 53.3155677,12.687795 C53.3155677,13.5509103 52.8528342,14.5722634 51.9273674,15.7518543 C51.6960007,16.0107889 51.6236986,16.3128793 51.7104611,16.6581254 C51.7683028,16.974601 51.912907,17.0033715 52.1442737,16.744437 C53.6192365,14.9318948 54.3567179,13.3207462 54.3567179,11.9109912 C54.3567179,10.8752529 53.9662866,10.0409081 53.1854239,9.40795684 C52.4913237,8.86131715 51.6815402,8.5879973 50.7560734,8.5879973 C49.9752107,8.5879973 49.3389522,8.78939087 48.847298,9.19217802 C45.781689,11.6952124 43.6415469,18.0534952 42.4268716,28.2670263 C41.8773756,28.7273545 41.1832755,29.2164531 40.3445711,29.7343223 C40.0842836,29.9069454 39.9541398,30.3097325 39.9541398,30.9426837 C39.9541398,31.9208811 40.3879524,32.3812093 41.2555776,32.3236682 C41.3712609,32.3236682 41.6893902,32.1654304 42.2099653,31.8489548 C42.1521236,36.596089 42.5136341,41.616543 43.2944968,46.9103169 C44.509172,55.0811418 46.403487,59.2672511 48.9774417,59.4686446 Z M56.5257809,59.4686446 C56.9595935,59.4974151 57.3500248,59.3175995 57.6970749,58.9291976 C58.0441249,58.5407957 58.21765,58.1739717 58.21765,57.8287256 C58.21765,57.4834794 58.0441249,57.3683974 57.6970749,57.4834794 C55.2966452,57.9725781 53.5469344,55.4983142 52.4479425,50.0606878 C51.6670798,46.1766689 51.2766485,41.3000674 51.2766485,35.4308833 C51.2766485,33.3018656 51.3200297,31.6187907 51.4067923,30.3816588 C52.0719716,29.9213306 52.70823,29.5329287 53.3155677,29.2164531 C55.9184432,27.8642392 57.7838374,26.9004271 58.9117501,26.3250169 C59.5769294,25.9797707 59.9095191,25.6489099 59.9095191,25.3324343 C59.9095191,25.2461227 59.8227566,25.202967 59.6492315,25.202967 C59.2732606,25.202967 58.2610312,25.5050573 56.6125434,26.109238 C55.5424723,26.5120252 54.4579408,26.9148123 53.3589489,27.3175995 C52.6359279,27.4902225 52.0575112,27.6053046 51.6236986,27.6628456 C52.4624029,22.3115307 53.8072219,18.1254214 55.6581557,15.1045179 C57.1331185,12.7165655 58.5213188,11.5225893 59.8227566,11.5225893 C60.5168567,11.5225893 60.8639068,11.9109912 60.8639068,12.687795 C60.8639068,13.5509103 60.4011734,14.5722634 59.4757065,15.7518543 C59.2443398,16.0107889 59.1720377,16.3128793 59.2588002,16.6581254 C59.3166419,16.974601 59.4612461,17.0033715 59.6926128,16.744437 C61.1675756,14.9318948 61.905057,13.3207462 61.905057,11.9109912 C61.905057,10.8752529 61.5146257,10.0409081 60.733763,9.40795684 C60.0396629,8.86131715 59.2298794,8.5879973 58.3044125,8.5879973 C57.5235498,8.5879973 56.8872914,8.78939087 56.3956371,9.19217802 C53.3300281,11.6952124 51.189886,18.0534952 49.9752107,28.2670263 C49.4257148,28.7273545 48.7316146,29.2164531 47.8929103,29.7343223 C47.6326227,29.9069454 47.5024789,30.3097325 47.5024789,30.9426837 C47.5024789,31.9208811 47.9362915,32.3812093 48.8039167,32.3236682 C48.9196001,32.3236682 49.2377293,32.1654304 49.7583044,31.8489548 C49.7004627,36.596089 50.0619732,41.616543 50.8428359,46.9103169 C52.0575112,55.0811418 53.9518261,59.2672511 56.5257809,59.4686446 Z M57.9573624,41.5158463 C59.1431168,41.5158463 60.6180797,40.2930996 62.3822509,37.8476062 C63.7704512,35.9487525 64.7537597,34.2512924 65.3321765,32.7552259 C65.3321765,33.4457181 65.3466369,34.1218251 65.3755578,34.7835469 C65.4623203,35.9919083 65.7804495,37.0995729 66.3299455,38.1065408 C66.7348372,38.8833446 67.3710957,39.2717465 68.2387209,39.2717465 C69.3666336,39.2717465 70.2776401,38.7538773 70.9717402,37.7181389 C71.1741861,37.4016633 71.275409,37.1283434 71.275409,36.8981794 C71.275409,36.5529332 71.1163444,36.3803102 70.7982152,36.3803102 C70.5379276,36.3803102 70.3065609,36.538548 70.104115,36.8550236 C69.4678566,37.9195325 68.9472814,38.4517869 68.5423897,38.4517869 C67.9350521,38.4517869 67.6313832,37.387278 67.6313832,35.2582603 C67.6313832,34.8267026 67.7470666,33.719038 67.9784333,31.9352664 C68.1808792,30.4104293 68.2242605,29.4753877 68.1085771,29.1301416 C67.9639729,28.6122724 67.6313832,28.3533378 67.1108081,28.3533378 C66.6769955,28.3533378 66.3299455,28.5403461 66.0696579,28.9143628 C64.07412,33.4313329 62.628078,36.2939987 61.731532,37.5023601 C60.5457776,39.1422792 59.6058503,39.9622387 58.9117501,39.9622387 C58.3044125,39.9622387 58.0007437,39.3149022 58.0007437,38.0202293 C58.0007437,37.6462126 58.0296645,37.2002697 58.0875062,36.6824005 C58.4056354,33.9204316 59.0852752,31.3742414 60.1264254,29.0438301 C61.3411006,26.3106316 62.6859197,24.9440324 64.1608825,24.9440324 C65.144191,24.9440324 65.9973558,25.7352214 66.7203768,27.3175995 C66.8071393,27.5477635 66.9228227,27.6628456 67.0674269,27.6628456 C67.5590811,27.6628456 67.8049083,27.1162059 67.8049083,26.0229265 C67.8049083,25.7064509 67.761527,25.37559 67.6747645,25.0303439 C67.2987936,23.5342774 66.416708,22.7862441 65.0285077,22.7862441 C62.8883656,22.7862441 60.7916047,24.9440324 58.7382251,29.2596089 C56.945133,33.0573163 56.048587,36.1645314 56.048587,38.5812542 C56.048587,40.5376489 56.6848455,41.5158463 57.9573624,41.5158463 Z M82.814824,42.6810519 C83.4221616,42.6810519 83.9644274,42.3286132 84.4416212,41.6237357 C84.9188151,40.9188582 85.1140307,40.2787143 85.0272682,39.7033041 C85.0272682,39.5882221 84.8103619,39.7896156 84.3765493,40.3074848 C83.8270534,41.0267476 83.3498595,41.386379 82.9449678,41.386379 C82.2508676,41.386379 81.9038176,40.5664194 81.9038176,38.9265003 C81.9038176,36.4522365 82.2942489,34.0211283 83.0751116,31.633176 C83.5956867,30.223421 84.1162618,28.8280512 84.6368369,27.4470668 C85.4176996,25.1454259 85.8081309,23.3041133 85.8081309,21.9231288 C85.8081309,19.621488 84.709139,18.5857496 82.5111552,18.8159137 C79.2141795,19.1611598 76.6113039,22.8725556 74.7025285,29.9501011 C74.4711618,30.7844459 74.2253347,31.9928074 73.9650471,33.5751854 C72.4900843,28.6266577 71.0874236,25.9653855 69.7570649,25.5913688 C69.1497273,25.4187458 68.8315981,25.4906721 68.8026772,25.8071477 C68.8026772,25.8646887 68.8171377,25.9222297 68.8460585,25.9797707 C69.3087919,26.2099348 69.6992233,26.612722 70.0173525,27.1881322 C70.1619567,27.5046078 70.3354817,28.0368622 70.5379276,28.7848955 C71.376632,32.8703079 71.9405883,35.977523 72.2297967,38.1065408 C72.547926,40.0053945 72.894976,41.2281412 73.270947,41.7747808 C73.444472,42.062486 73.6613783,42.2063385 73.9216658,42.2063385 C74.2397951,42.2063385 74.5434639,41.9474039 74.8326723,41.4295347 C75.1218807,40.9116655 75.237564,40.4513374 75.1797224,40.0485502 C75.0351182,38.5812542 74.9628161,37.2290402 74.9628161,35.9919083 C74.9628161,32.8271522 75.4400099,29.8925601 76.3943976,27.1881322 C76.8860519,25.8646887 77.6235333,24.4405484 78.6068418,22.9157114 C79.9950421,20.8154641 81.195257,19.794111 82.2074864,19.8516521 C82.9015865,19.9091931 83.1907949,20.7291526 83.0751116,22.3115307 C83.0751116,22.3403012 82.6991406,24.5700157 81.9471988,29.0006743 C81.2820195,32.9997752 80.9494298,36.0782198 80.9494298,38.2360081 C80.9494298,40.652731 81.3543216,42.0768712 82.1641051,42.5084289 C82.366551,42.6235109 82.5834573,42.6810519 82.814824,42.6810519 Z M87.5,64 C89.7847463,64 92.1562552,63.1081142 94.6145265,61.3243425 C99.1550983,58.0157339 102.105024,52.5924927 103.464303,45.054619 C105.315237,44.6518319 107.166171,44.378512 109.017105,44.2346595 C109.797967,44.1771185 110.188399,43.9901101 110.188399,43.6736345 C110.188399,43.5010115 109.942571,43.4290852 109.450917,43.4578557 C106.616675,43.6880198 104.678979,43.8894134 103.637828,44.0620364 C103.753512,42.7673635 103.811353,41.3432232 103.811353,39.7896156 C103.811353,32.6545291 103.102793,27.3895257 101.685672,23.9946055 C101.512147,23.5630479 101.150636,23.347269 100.60114,23.347269 C99.7045943,23.347269 99.3286234,23.7644414 99.4732276,24.5987862 C99.6178318,25.1166554 99.762436,25.6057541 99.9070402,26.0660823 C97.0149562,32.6545291 94.7880516,37.3585075 93.2263262,40.1780175 C93.4866138,38.681951 93.6167576,36.9701056 93.6167576,35.0424815 C93.6167576,32.2229715 93.3275492,29.9069454 92.7491324,28.0944032 C92.0550322,25.9078445 91.0428028,24.8145651 89.7124442,24.8145651 C88.8737399,24.8145651 87.8976615,25.2533154 86.7842092,26.1308159 C85.6707569,27.0083165 84.9549661,27.8354686 84.6368369,28.6122724 C84.5211535,28.871207 84.5645348,29.0006743 84.7669807,29.0006743 C84.7959015,29.0006743 85.2514047,28.5475388 86.1334903,27.6412677 C87.0155759,26.7349966 87.8325897,26.2962463 88.5845315,26.3250169 C90.6957528,26.4400989 91.7513634,29.9644864 91.7513634,36.8981794 L91.7513634,36.8981794 L91.7517972,40.7226433 C91.7544001,41.4269454 91.7687159,41.9215105 91.7947447,42.2063385 C91.9682697,43.2996179 92.3297802,43.8462576 92.8792762,43.8462576 C93.1974054,43.8462576 93.5083044,43.6880198 93.8119732,43.3715442 C94.115642,43.0550686 94.2819369,42.7673635 94.3108577,42.5084289 C94.3976202,41.1849854 95.0338787,39.1422792 96.2196331,36.3803102 C97.5499917,33.3018656 98.8803504,30.223421 100.210709,27.1449764 C101.569988,32.0359631 102.249628,36.9557204 102.249628,41.9042481 C102.249628,42.7098224 102.235168,43.529782 102.206247,44.3641268 C97.9548835,45.2560126 94.1228723,46.8527759 90.7102132,49.1544167 C87.9048918,51.0244999 85.7358288,53.0672061 84.2030243,55.2825354 C83.1040324,56.8649135 82.5545364,58.3465947 82.5545364,59.7275792 C82.5545364,61.0222522 83.0100397,62.0579906 83.9210461,62.8347943 C84.8320526,63.6115981 86.0250372,64 87.5,64 Z M87.0661874,62.8347943 C85.0417286,62.8347943 84.0294993,61.8997528 84.0294993,60.0296696 C84.0294993,58.6774556 84.6512973,57.1957743 85.8948934,55.5846258 C87.6879855,53.2542144 90.0884151,51.1539672 93.0961824,49.283884 C95.9882664,47.5001124 98.9815733,46.2054394 102.076103,45.3998651 C101.150636,52.5061812 97.766898,57.7711845 91.9248884,61.1948753 C90.0739547,62.2881546 88.4543877,62.8347943 87.0661874,62.8347943 Z M116.4353,48.4639245 C117.216163,48.4639245 117.968104,48.1042931 118.691125,47.3850303 C119.52983,46.4931445 120.079326,45.2560126 120.339613,43.6736345 C125.921335,41.5158463 129.073707,40.3218701 129.796728,40.091706 C132.63097,39.2573612 136.101471,38.8401888 140.20823,38.8401888 C143.534127,38.8401888 145.601967,39.8759272 146.41175,41.9474039 C146.672038,42.6378962 146.888944,42.9831423 147.062469,42.9831423 C147.264915,42.9831423 147.366138,42.5084289 147.366138,41.559002 C147.366138,40.0053945 146.469592,38.7826478 144.6765,37.890762 C143.230458,37.2002697 141.668732,36.8550236 139.991324,36.8550236 C132.442985,36.8550236 125.906875,38.5093279 120.382995,41.8179366 C120.90357,39.1135087 122.118245,35.5315801 124.02702,31.072151 C124.605437,31.3310856 125.40076,31.4605529 126.41299,31.4605529 C130.317303,31.4605529 134.380681,29.8494044 138.603123,26.6271072 C142.304991,23.8075972 145.486283,20.297595 148.147,16.0971005 C150.720955,12.0404585 152.007933,8.60238256 152.007933,5.78287256 C152.007933,2.93459204 150.590811,1.51045179 147.756569,1.51045179 C142.984631,1.51045179 137.923484,5.14992133 132.573128,12.4288604 C129.18939,17.0033715 125.921335,22.6855473 122.768964,29.4753877 C122.132705,29.1301416 121.583209,28.5691167 121.120476,27.7923129 C120.657743,27.0155091 120.426376,26.2387053 120.426376,25.4619016 C120.426376,24.1096876 120.267311,23.4335806 119.949182,23.4335806 C119.457528,23.4335806 119.211701,24.1816138 119.211701,25.6776804 C119.211701,26.7421893 119.55152,27.7635424 120.23116,28.7417397 C120.9108,29.7199371 121.626591,30.280962 122.378532,30.4248146 C120.469757,34.5965385 119.327384,37.8763767 118.951413,40.2643291 C118.748967,41.4151495 118.5176,42.3070353 118.257313,42.9399865 C116.08825,44.5223646 115.003718,45.9321196 115.003718,47.1692515 C115.003718,48.0323668 115.480912,48.4639245 116.4353,48.4639245 Z M126.152702,30.4248146 C125.256156,30.4248146 124.6922,30.338503 124.460833,30.16588 C126.948025,24.7570241 130.288382,19.2906271 134.481904,13.7666891 C139.947942,6.54529108 144.488514,2.93459204 148.103619,2.93459204 C149.694265,2.93459204 150.489588,3.86963363 150.489588,5.73971679 C150.489588,8.15643965 149.274913,11.3211958 146.845563,15.2339852 C144.300529,19.3481681 141.278301,22.8006294 137.77888,25.5913688 C133.729962,28.813666 129.854569,30.4248146 126.152702,30.4248146 Z M154.567427,41.7747808 C156.071311,41.7747808 157.560734,41.0699033 159.035697,39.6601483 C160.626343,38.1640818 161.869939,36.1213756 162.766485,33.5320297 C162.795406,33.4169476 162.809866,33.3162508 162.809866,33.2299393 C162.809866,32.8846932 162.723104,32.7120701 162.549579,32.7120701 C162.231449,32.7120701 161.841018,33.1867835 161.378285,34.1362104 C159.267063,38.6531805 157.098,40.9116655 154.871096,40.9116655 C153.801025,40.9116655 152.926169,40.3146775 152.246529,39.1207013 C151.56689,37.9267251 151.22707,36.3083839 151.22707,34.2656777 C151.22707,33.3737919 151.299372,32.424365 151.443976,31.4173972 C151.733185,29.4610025 152.210378,27.9649359 152.875558,26.9291976 C153.453975,26.0373118 154.046852,25.5913688 154.654189,25.5913688 C155.435052,25.5913688 155.825483,26.109238 155.825483,27.1449764 C155.825483,27.7779276 155.637498,28.4540346 155.261527,29.1732974 C154.480664,30.6693639 153.613039,31.7338728 152.658651,32.366824 C152.080235,32.7408406 151.791026,33.0717015 151.791026,33.3594066 C151.791026,33.4744886 151.863328,33.5320297 152.007933,33.5320297 C152.152537,33.5320297 152.326062,33.4888739 152.528508,33.4025624 C154.119154,32.7983817 155.478433,31.3742414 156.606346,29.1301416 C157.126921,28.0944032 157.387209,27.1449764 157.387209,26.2818611 C157.387209,24.3254664 156.519584,23.347269 154.784333,23.347269 C153.482895,23.347269 152.340522,24.0377613 151.357214,25.4187458 C150.171459,27.0586649 149.52074,29.3315352 149.405057,32.2373567 C149.260453,35.3158013 149.708726,37.7181389 150.749876,39.4443695 C151.675343,40.9979771 152.94786,41.7747808 154.567427,41.7747808 Z M161.681953,41.5158463 C162.867708,41.5158463 164.342671,40.2930996 166.106842,37.8476062 C167.495042,35.9487525 168.478351,34.2512924 169.056767,32.7552259 C169.056767,33.4457181 169.071228,34.1218251 169.100149,34.7835469 C169.186911,35.9919083 169.50504,37.0995729 170.054536,38.1065408 C170.459428,38.8833446 171.095687,39.2717465 171.963312,39.2717465 C173.091225,39.2717465 174.002231,38.7538773 174.696331,37.7181389 C174.898777,37.4016633 175,37.1283434 175,36.8981794 C175,36.5529332 174.840935,36.3803102 174.522806,36.3803102 C174.262519,36.3803102 174.031152,36.538548 173.828706,36.8550236 C173.192448,37.9195325 172.671872,38.4517869 172.266981,38.4517869 C171.659643,38.4517869 171.355974,37.387278 171.355974,35.2582603 C171.355974,34.8267026 171.471658,33.719038 171.703024,31.9352664 C171.90547,30.4104293 171.948851,29.4753877 171.833168,29.1301416 C171.688564,28.6122724 171.355974,28.3533378 170.835399,28.3533378 C170.401587,28.3533378 170.054536,28.5403461 169.794249,28.9143628 C167.798711,33.4313329 166.352669,36.2939987 165.456123,37.5023601 C164.270369,39.1422792 163.330441,39.9622387 162.636341,39.9622387 C162.029003,39.9622387 161.725335,39.3149022 161.725335,38.0202293 C161.725335,37.6462126 161.754255,37.2002697 161.812097,36.6824005 C162.130226,33.9204316 162.809866,31.3742414 163.851016,29.0438301 C165.065692,26.3106316 166.410511,24.9440324 167.885473,24.9440324 C168.868782,24.9440324 169.721947,25.7352214 170.444968,27.3175995 C170.53173,27.5477635 170.647414,27.6628456 170.792018,27.6628456 C171.283672,27.6628456 171.529499,27.1162059 171.529499,26.0229265 C171.529499,25.7064509 171.486118,25.37559 171.399355,25.0303439 C171.023385,23.5342774 170.141299,22.7862441 168.753099,22.7862441 C166.612957,22.7862441 164.516196,24.9440324 162.462816,29.2596089 C160.669724,33.0573163 159.773178,36.1645314 159.773178,38.5812542 C159.773178,40.5376489 160.409436,41.5158463 161.681953,41.5158463 Z" id="TiffanyLea" fill="#000000" fill-rule="nonzero"></path>
    </g>
</svg>